HIERARCHY
ROOT Hips
{
  OFFSET 263.056 91.6644 -274.608
  CHANNELS 6 Xposition Yposition Zposition Zrotation Xrotation Yrotation
  JOINT LeftUpLeg
  {
    OFFSET 8.64259 1.95398 -2.38835
    CHANNELS 3 Zrotation Xrotation Yrotation
    JOINT LeftLeg
    {
      OFFSET 43.7702 0 0
      CHANNELS 3 Zrotation Xrotation Yrotation
      JOINT LeftFoot
      {
        OFFSET 40.6238 0 0
        CHANNELS 3 Zrotation Xrotation Yrotation
        JOINT LeftToeBase
        {
          OFFSET 12.7242 0 0
          CHANNELS 3 Zrotation Xrotation Yrotation
          End Site
          {
            OFFSET 0 0 0
          }
        }
      }
    }
  }
  JOINT RightUpLeg
  {
    OFFSET -8.2249 1.95398 -2.59336
    CHANNELS 3 Zrotation Xrotation Yrotation
    JOINT RightLeg
    {
      OFFSET 43.5653 0 0
      CHANNELS 3 Zrotation Xrotation Yrotation
      JOINT RightFoot
      {
        OFFSET 40.6238 0 0
        CHANNELS 3 Zrotation Xrotation Yrotation
        JOINT RightToeBase
        {
          OFFSET 12.7242 0 0
          CHANNELS 3 Zrotation Xrotation Yrotation
          End Site
          {
            OFFSET 0 0 0
          }
        }
      }
    }
  }
  JOINT Spine
  {
    OFFSET 0.165834 0.87714 6.61349
    CHANNELS 3 Zrotation Xrotation Yrotation
    JOINT Spine1
    {
      OFFSET 7.38963 1.71661e-005 0
      CHANNELS 3 Zrotation Xrotation Yrotation
      JOINT Spine2
      {
        OFFSET 11.9445 1.14441e-005 0
        CHANNELS 3 Zrotation Xrotation Yrotation
        JOINT Spine3
        {
          OFFSET 14.7254 4.19617e-005 0
          CHANNELS 3 Zrotation Xrotation Yrotation
          JOINT Spine4
          {
            OFFSET 10.9679 0 0
            CHANNELS 3 Zrotation Xrotation Yrotation
            JOINT RightShoulder
            {
              OFFSET 2.46616 -1.6653 3.69651
              CHANNELS 3 Zrotation Xrotation Yrotation
              JOINT RightArm
              {
                OFFSET 13.0012 0 0
                CHANNELS 3 Zrotation Xrotation Yrotation
                JOINT RightForeArm
                {
                  OFFSET 28.7848 1.52588e-005 0
                  CHANNELS 3 Zrotation Xrotation Yrotation
                  JOINT RightHand
                  {
                    OFFSET 26.5688 1.52588e-005 0
                    CHANNELS 3 Zrotation Xrotation Yrotation
                    End Site
                    {
                      OFFSET 0 0 0
                    }
                  }
                }
              }
            }
            JOINT LeftShoulder
            {
              OFFSET 2.38034 -1.29275 -3.7523
              CHANNELS 3 Zrotation Xrotation Yrotation
              JOINT LeftArm
              {
                OFFSET 16.3182 6.10352e-005 0
                CHANNELS 3 Zrotation Xrotation Yrotation
                JOINT LeftForeArm
                {
                  OFFSET 27.0901 0 0
                  CHANNELS 3 Zrotation Xrotation Yrotation
                  JOINT LeftHand
                  {
                    OFFSET 24.5451 1.52588e-005 0
                    CHANNELS 3 Zrotation Xrotation Yrotation
                    End Site
                    {
                      OFFSET 0 0 0
                    }
                  }
                }
              }
            }
            JOINT Neck
            {
              OFFSET 5.0226 -0.0266342 0
              CHANNELS 3 Zrotation Xrotation Yrotation
              JOINT Head
              {
                OFFSET 6.69364 2.86102e-005 0
                CHANNELS 3 Zrotation Xrotation Yrotation
                End Site
                {
                  OFFSET 0 0 0
                }
              }
            }
          }
        }
      }
    }
  }
}
MOTION
Frames:	10
Frame Time:	0.0416667
37.5433 97.4301 -247.685 -21.5963 -88.6202 -22.3106 -174.125 5.23695 86.4731 -11.9398 12.0885 -0.860104 63.4072 9.65329 12.7815 31.8133 3.88367 -9.94424 178.236 5.24053 91.1208 -14.8029 0.131033 -0.8872 68.4037 -2.51608 -1.31688 30.7236 -0.573053 14.9859 -0.104964 7.05653 -89.854 12.7609 -0.138583 0.308296 1.08995 -0.124881 0.314093 -21.4451 -0.224833 0.252393 -1.43241 -0.22483 0.252394 76.5938 -53.9968 -119.157 21.9718 -15.9456 4.29747 -3.02277 -16.2047 -38.9416 -6.944 -0.630033 4.33796 -104.459 -43.7466 54.7848 -29.4215 11.523 4.618 2.82573 9.08037 -31.3992 8.17728 0.537276 2.42224 12.6184 0.817693 1.33395 -4.72663 0.458535 0.55832 
38.0089 97.1359 -247.31 -14.4529 -88.591 -15.0003 -174.69 5.93188 85.9937 -13.8503 11.5613 -0.33649 64.3516 11.0729 12.858 32.1231 4.16047 -9.56439 178.168 6.15245 91.0835 -17.1037 0.472924 -0.900854 70.0044 -3.07503 -1.58497 31.0382 -0.52658 15.202 0.010896 7.03223 -89.9078 12.8094 0.0658462 0.176464 1.13841 0.0735471 0.173371 -21.3967 0.00975723 0.188085 -1.38402 0.00976392 0.188077 76.6761 -53.3884 -119.296 23.3184 -13.9793 5.79942 -9.18407 -18.7367 -41.3955 -4.88213 -0.527163 4.58977 -105.708 -43.531 52.8109 -30.0472 10.3243 5.09417 3.48706 9.08114 -31.6455 8.84335 0.589562 2.54749 10.918 0.279563 1.70689 -3.06666 -0.125474 -0.43655 
38.5537 96.8693 -246.648 13.1734 -88.8768 13.295 -174.849 6.22177 86.1505 -15.9134 11.9707 0.0273973 65.3627 12.2969 13.5965 32.7117 4.81375 -12.9561 179.105 6.6209 91.9181 -19.4548 1.36767 -1.77635 70.26 -3.43196 -1.77298 33.8057 0.0827415 12.251 -0.015997 7.09808 -89.9771 12.6778 -0.0208461 0.0479605 1.00685 -0.0187168 0.0488261 -21.5283 -0.0342968 0.0394755 -1.51567 -0.0343006 0.0394715 76.7717 -53.6496 -119.052 22.7773 -13.6799 5.78196 -8.76948 -18.2049 -41.4641 -4.91754 -0.524917 4.58432 -105.613 -43.5107 52.9434 -30.2422 10.4189 4.96812 3.23457 8.5265 -31.7697 9.15155 0.603658 2.50479 10.7735 0.163606 1.08851 -2.32699 -0.0900601 0.374856 
38.9378 96.4172 -246.044 27.8361 -89.0787 27.8306 -174.701 6.01199 85.9217 -17.1239 13.1763 -0.291809 66.4409 13.8646 14.7026 33.503 5.50546 -12.2073 179.798 9.42122 92.4371 -25.8473 3.82825 -2.72859 70.6479 -3.93716 -2.03016 37.2395 0.650838 10.1472 -0.0351054 7.1844 -89.95 12.505 -0.0458797 0.105226 0.834084 -0.0412118 0.107142 -21.701 -0.0753782 0.0865766 -1.6884 -0.0753946 0.0865647 77.0237 -53.6509 -118.697 22.8686 -13.1732 6.04407 -8.82591 -18.4204 -41.8191 -6.16274 -0.614251 4.71034 -105.39 -43.2039 53.1242 -30.4978 10.4949 4.79453 3.28432 8.4236 -32.0445 8.50395 0.509485 1.92378 11.1523 0.268294 1.06377 -1.9492 0.0142064 0.270506 
39.3195 96.0638 -245.39 16.3896 -89.4488 15.85 -174.92 6.00503 85.2385 -18.8614 14.404 -0.419659 66.4309 14.0416 15.5757 34.9889 6.84159 -11.9415 179.927 14.4388 92.171 -35.1196 5.14825 -3.03303 68.4308 -3.62005 -1.93226 43.31 1.16571 4.20891 -0.0846883 7.29758 -89.8191 12.2787 -0.0824518 0.370466 0.607731 -0.0660681 0.373721 -21.9271 -0.189979 0.328553 -1.91445 -0.189984 0.328548 76.5265 -54.1317 -119.195 23.226 -11.6134 6.37884 -9.07665 -16.0515 -42.879 -6.47786 -0.620311 4.57973 -105.231 -42.9769 53.249 -29.527 10.8281 4.67517 3.3026 8.18851 -33.0543 8.71901 0.599336 2.72612 11.1925 0.41016 0.466933 -1.29027 0.304528 0.827768 
39.8717 96.033 -244.183 46.9477 -88.7372 47.02 -174.952 5.5949 85.4304 -18.9613 13.469 -0.110404 67.3752 14.669 14.9535 35.5474 7.31305 -13.9056 179.584 18.848 92.5231 -39.5919 5.53355 -2.18309 68.4091 -3.84867 -2.06608 45.5256 1.38631 4.21063 -0.193885 7.33758 -89.9291 12.199 -0.351751 0.180698 0.528053 -0.343458 0.196003 -22.0074 -0.389802 0.0666264 -1.99477 -0.389796 0.0666347 77.1663 -54.0147 -118.347 23.6952 -10.4739 7.18635 -9.02519 -14.4654 -43.9629 -7.89051 -0.74439 5.18319 -106.28 -43.4192 51.9038 -27.6992 11.1934 3.90508 3.18286 7.96991 -33.6214 8.42643 0.579933 2.71332 10.3916 0.890969 1.12135 -0.506602 0.638988 1.08285 
40.2945 96.2008 -242.423 69.9302 -87.9069 70.4919 -174.996 3.15951 85.7868 -16.6937 15.3373 0.0889847 67.0555 15.2048 15.6954 35.2707 7.06184 -14.8561 179.698 21.1867 92.7371 -36.6387 5.64572 -1.58251 66.7211 -3.03077 -1.65349 45.5271 1.42838 4.69674 -0.362083 7.39615 -90.0048 12.082 -0.722009 0.0696231 0.411268 -0.71825 0.101323 -22.1255 -0.709559 -0.150609 -2.11284 -0.709557 -0.150608 76.9934 -53.9726 -118.608 23.8546 -9.63751 8.63376 -10.2402 -14.2355 -45.0138 -7.52954 -0.767082 6.05268 -106.025 -43.2209 52.1832 -26.9345 10.937 3.00866 3.65369 7.7245 -34.9969 8.46935 0.553774 2.40929 9.95886 1.01245 1.16233 -1.4187 0.748319 1.29346 
40.7427 96.1468 -240.476 70.4769 -86.8267 71.4968 -174.555 1.6814 86.4583 -15.5892 16.8974 -0.0659492 67.9011 15.8123 15.2518 34.8993 6.74284 -15.0192 179.893 23.2881 92.5432 -30.5684 4.8929 -0.872387 65.2594 -2.37353 -1.30608 44.1207 1.19694 3.4949 -0.51164 7.43788 -90.0746 11.9984 -1.05238 -0.0343365 0.327884 -1.05287 0.0120036 -22.2104 -0.993408 -0.349071 -2.19774 -0.993406 -0.349074 78.0234 -53.8178 -117.221 24.2521 -9.77371 8.59394 -11.2097 -15.7892 -43.9888 -9.44099 -0.809513 4.40597 -106.081 -43.0415 52.0072 -25.3632 10.7545 2.25227 4.34325 7.24402 -37.7587 8.17939 0.541169 2.45889 9.77353 1.1506 0.944328 -1.81752 0.93044 1.34404 
41.0345 95.7816 -238.138 48.9431 -87.9493 49.9062 -173.779 -0.200451 86.4895 -14.5317 15.6195 -0.665186 69.3129 16.9757 14.9308 35.5818 7.35005 -13.4973 -179.042 25.5858 92.5125 -24.7834 3.45834 -1.00875 63.3978 -1.76133 -0.968721 41.4601 1.03438 5.25418 -0.40056 7.49423 -90.0475 11.8857 -0.818824 -0.00690434 0.21498 -0.818336 0.0291478 -22.3221 -0.778892 -0.252683 -2.30945 -0.778897 -0.252688 77.4387 -54.3668 -117.823 23.4967 -10.078 8.65523 -10.3159 -16.7086 -42.3749 -6.52296 -0.696426 6.1857 -106.105 -42.9165 51.9076 -23.3528 10.6439 1.00536 4.46837 6.63222 -39.2044 8.46682 0.515122 2.00727 9.88844 1.01575 0.84238 -2.35517 0.814353 1.34344 
41.1206 95.2698 -234.921 50.521 -87.7086 50.683 -173.458 -3.03047 86.1804 -12.932 15.9532 -1.09801 69.4165 17.8892 15.4567 37.8261 9.31898 -13.4058 -178.739 26.8786 91.752 -20.3328 3.87995 -0.973347 63.0328 -1.47003 -0.792975 41.399 1.09494 6.60929 -0.47869 7.56779 -89.9986 11.7391 -0.951364 0.102806 0.0684834 -0.945925 0.144567 -22.4694 -0.938274 -0.187901 -2.45676 -0.938283 -0.187914 75.8055 -55.3552 -119.684 21.7565 -9.90352 9.4958 -9.87171 -17.5553 -40.2986 -5.45649 -0.593731 5.65091 -106.376 -42.7929 51.4404 -22.0641 9.95588 -0.144841 4.81929 6.60042 -39.621 8.19339 0.530696 2.33924 9.03213 1.32213 1.06876 -1.38004 1.0848 1.41944 
